<svg width="187" height="78" viewBox="0 0 187 78" fill="none" xmlns="http://www.w3.org/2000/svg">
<rect width="187" height="78" fill="#2D2D2D"/>
<path d="M76.8261 30.25V45H74.1861V37.8L75.3761 38.7H67.2361L68.4261 37.82V45H65.7861V30.25H68.4261V37.52L67.2361 36.6H75.3761L74.1861 37.51V30.25H76.8261ZM84.6494 45.21C83.5294 45.21 82.5427 44.9767 81.6894 44.51C80.836 44.0367 80.166 43.3833 79.6794 42.55C79.1994 41.7167 78.9594 40.7633 78.9594 39.69C78.9594 38.61 79.1994 37.66 79.6794 36.84C80.166 36.0133 80.836 35.3667 81.6894 34.9C82.5427 34.4333 83.5294 34.2 84.6494 34.2C85.7694 34.2 86.756 34.4333 87.6094 34.9C88.4627 35.3667 89.1294 36.0133 89.6094 36.84C90.096 37.66 90.3394 38.61 90.3394 39.69C90.3394 40.7633 90.096 41.7167 89.6094 42.55C89.1294 43.3833 88.4627 44.0367 87.6094 44.51C86.756 44.9767 85.7694 45.21 84.6494 45.21ZM84.6494 43.06C85.256 43.06 85.786 42.92 86.2394 42.64C86.6927 42.36 87.046 41.97 87.2994 41.47C87.5527 40.9633 87.6794 40.37 87.6794 39.69C87.6794 39.01 87.5527 38.4233 87.2994 37.93C87.046 37.43 86.6927 37.0433 86.2394 36.77C85.786 36.4967 85.256 36.36 84.6494 36.36C84.0494 36.36 83.5194 36.4967 83.0594 36.77C82.606 37.0433 82.2527 37.43 81.9994 37.93C81.746 38.4233 81.6194 39.01 81.6194 39.69C81.6194 40.37 81.746 40.9633 81.9994 41.47C82.2527 41.97 82.606 42.36 83.0594 42.64C83.5194 42.92 84.0494 43.06 84.6494 43.06ZM99.1153 45V40.69C99.1153 40.2967 99.1153 39.9533 99.1153 39.66C99.1153 39.36 99.1153 39.11 99.1153 38.91C99.1153 38.65 99.0986 38.38 99.0653 38.1C99.032 37.8133 98.9586 37.55 98.8453 37.31C98.732 37.07 98.5553 36.8767 98.3153 36.73C98.082 36.5767 97.7586 36.5 97.3453 36.5C96.9453 36.5 96.6053 36.5833 96.3253 36.75C96.052 36.91 95.8253 37.1267 95.6453 37.4C95.472 37.6667 95.3453 37.9733 95.2653 38.32C95.1853 38.66 95.1453 39.01 95.1453 39.37L94.2653 38.78C94.2653 37.9067 94.4286 37.1267 94.7553 36.44C95.082 35.7533 95.5453 35.21 96.1453 34.81C96.752 34.4033 97.4686 34.2 98.2953 34.2C99.1486 34.2 99.8253 34.38 100.325 34.74C100.825 35.0933 101.182 35.5733 101.395 36.18C101.615 36.7867 101.725 37.4667 101.725 38.22C101.725 38.5 101.725 38.8733 101.725 39.34C101.725 39.8 101.725 40.3433 101.725 40.97V45H99.1153ZM92.5153 45V34.38H95.1453V45H92.5153ZM105.675 45V40.7C105.675 40.28 105.675 39.9233 105.675 39.63C105.675 39.3367 105.675 39.09 105.675 38.89C105.675 38.61 105.659 38.33 105.625 38.05C105.592 37.7633 105.519 37.5067 105.405 37.28C105.292 37.0467 105.115 36.86 104.875 36.72C104.635 36.5733 104.309 36.5 103.895 36.5C103.489 36.5 103.145 36.58 102.865 36.74C102.592 36.9 102.372 37.1133 102.205 37.38C102.039 37.6467 101.915 37.9467 101.835 38.28C101.762 38.6133 101.725 38.9467 101.725 39.28L100.845 38.7C100.845 37.8533 101.005 37.09 101.325 36.41C101.645 35.73 102.105 35.1933 102.705 34.8C103.305 34.4 104.019 34.2 104.845 34.2C105.679 34.2 106.349 34.37 106.855 34.71C107.362 35.05 107.729 35.5167 107.955 36.11C108.189 36.6967 108.305 37.3667 108.305 38.12C108.305 38.4133 108.305 38.7867 108.305 39.24C108.305 39.6933 108.305 40.23 108.305 40.85V45H105.675ZM111.816 40.54V38.67H119.246L118.946 39.17C118.946 39.13 118.946 39.0867 118.946 39.04C118.946 38.9867 118.946 38.9433 118.946 38.91C118.946 38.45 118.842 38.02 118.636 37.62C118.429 37.2133 118.116 36.8867 117.696 36.64C117.276 36.3867 116.742 36.26 116.096 36.26C115.456 36.26 114.899 36.3967 114.426 36.67C113.959 36.9367 113.596 37.3233 113.336 37.83C113.082 38.3367 112.956 38.9433 112.956 39.65C112.956 40.3767 113.079 41.0033 113.326 41.53C113.572 42.05 113.932 42.45 114.406 42.73C114.886 43.0033 115.469 43.14 116.156 43.14C116.622 43.14 117.026 43.0967 117.366 43.01C117.706 42.9233 117.982 42.8067 118.196 42.66C118.416 42.5067 118.579 42.3433 118.686 42.17C118.799 41.9967 118.866 41.8233 118.886 41.65H121.506C121.466 42.0967 121.316 42.5333 121.056 42.96C120.802 43.38 120.446 43.7633 119.986 44.11C119.526 44.45 118.966 44.7233 118.306 44.93C117.652 45.13 116.906 45.23 116.066 45.23C114.926 45.23 113.929 44.9967 113.076 44.53C112.222 44.0633 111.556 43.4133 111.076 42.58C110.602 41.7467 110.366 40.7933 110.366 39.72C110.366 38.62 110.606 37.6567 111.086 36.83C111.572 36.0033 112.246 35.36 113.106 34.9C113.966 34.4333 114.952 34.2 116.066 34.2C117.212 34.2 118.202 34.4333 119.036 34.9C119.876 35.3667 120.522 36.0167 120.976 36.85C121.429 37.6767 121.656 38.64 121.656 39.74C121.656 39.88 121.652 40.03 121.646 40.19C121.639 40.35 121.629 40.4667 121.616 40.54H111.816Z" fill="white"/>
</svg>
