<svg width="1232" height="209" viewBox="0 0 1232 209" fill="none" xmlns="http://www.w3.org/2000/svg">
<rect width="604" height="209" fill="white"/>
<path d="M42 96C42 78.3269 56.3269 64 74 64C91.6731 64 106 78.3269 106 96V128H42V96Z" fill="#F3AFA8"/>
<path d="M58.603 114.61L62.0086 114.61L62.0086 111.086L58.603 111.086L58.603 114.61ZM86.9557 85.701C86.9557 85.4627 86.769 85.2694 86.5386 85.2694L82.7848 85.2694C82.5544 85.2694 82.3677 85.4627 82.3677 85.701C82.3677 85.9394 82.5544 86.1327 82.7848 86.1327L86.1215 86.1327L86.1215 89.5856C86.1215 89.824 86.3083 90.0172 86.5386 90.0172C86.769 90.0172 86.9557 89.824 86.9557 89.5856L86.9557 85.701ZM60.6007 113.153L86.8335 86.0062L86.2437 85.3958L60.0109 112.542L60.6007 113.153Z" fill="#2D2D2D"/>
<path d="M162.499 74.9225H156.195L157.504 73.154V92H153.94V73.154L155.317 74.9225H148.959V72.0875H162.499V74.9225ZM175.385 92V86.8295C175.385 86.6135 175.385 86.3435 175.385 86.0195C175.385 85.6955 175.385 85.367 175.385 85.034C175.385 84.701 175.385 84.4265 175.385 84.2105C175.385 83.0225 175.151 82.1135 174.683 81.4835C174.224 80.8445 173.437 80.525 172.321 80.525C171.574 80.525 170.935 80.6735 170.404 80.9705C169.882 81.2585 169.481 81.6635 169.202 82.1855C168.923 82.7075 168.784 83.3105 168.784 83.9945L167.488 83.306C167.488 82.163 167.744 81.1505 168.257 80.2685C168.779 79.3775 169.499 78.68 170.417 78.176C171.335 77.672 172.388 77.42 173.576 77.42C175.313 77.42 176.641 77.9375 177.559 78.9725C178.477 79.9985 178.936 81.4295 178.936 83.2655C178.936 83.7335 178.936 84.2915 178.936 84.9395C178.936 85.5785 178.936 86.2985 178.936 87.0995V92H175.385ZM165.233 92V70.8995H168.784V92H165.233ZM182.304 92V77.663H185.814V92H182.304ZM184.073 75.017C183.497 75.017 182.993 74.864 182.561 74.558C182.138 74.243 181.926 73.8065 181.926 73.2485C181.926 72.6995 182.138 72.272 182.561 71.966C182.993 71.66 183.497 71.507 184.073 71.507C184.64 71.507 185.135 71.66 185.558 71.966C185.981 72.272 186.192 72.6995 186.192 73.2485C186.192 73.8065 185.981 74.243 185.558 74.558C185.135 74.864 184.64 75.017 184.073 75.017ZM195.124 92.297C194.269 92.297 193.455 92.2025 192.681 92.0135C191.916 91.8245 191.232 91.541 190.629 91.163C190.035 90.785 189.562 90.317 189.211 89.759C188.869 89.192 188.698 88.5395 188.698 87.8015C188.698 87.7475 188.698 87.6935 188.698 87.6395C188.698 87.5855 188.698 87.536 188.698 87.491H192.235C192.235 87.536 192.235 87.5765 192.235 87.6125C192.235 87.6395 192.235 87.68 192.235 87.734C192.235 88.319 192.501 88.76 193.032 89.057C193.572 89.345 194.305 89.489 195.232 89.489C195.736 89.489 196.209 89.435 196.65 89.327C197.1 89.219 197.46 89.0525 197.73 88.8275C198.009 88.6025 198.148 88.3145 198.148 87.9635C198.148 87.3965 197.856 86.9915 197.271 86.7485C196.695 86.5055 195.786 86.285 194.544 86.087C193.86 85.97 193.185 85.8125 192.519 85.6145C191.853 85.4165 191.245 85.151 190.696 84.818C190.156 84.485 189.72 84.071 189.387 83.576C189.063 83.081 188.901 82.478 188.901 81.767C188.901 80.822 189.18 80.03 189.738 79.391C190.305 78.743 191.061 78.2525 192.006 77.9195C192.96 77.5865 194.008 77.42 195.151 77.42C196.249 77.42 197.271 77.6 198.216 77.96C199.161 78.32 199.921 78.8375 200.497 79.5125C201.082 80.1875 201.375 81.002 201.375 81.956C201.375 81.992 201.375 82.0325 201.375 82.0775C201.375 82.1135 201.375 82.145 201.375 82.172H197.865C197.865 82.145 197.865 82.118 197.865 82.091C197.865 82.064 197.865 82.0325 197.865 81.9965C197.865 81.5825 197.734 81.245 197.473 80.984C197.212 80.723 196.875 80.5295 196.461 80.4035C196.047 80.2775 195.61 80.2145 195.151 80.2145C194.746 80.2145 194.328 80.2595 193.896 80.3495C193.464 80.4305 193.104 80.579 192.816 80.795C192.528 81.002 192.384 81.2945 192.384 81.6725C192.384 82.0325 192.532 82.325 192.829 82.55C193.126 82.775 193.54 82.964 194.071 83.117C194.602 83.261 195.214 83.3915 195.907 83.5085C196.564 83.6165 197.226 83.765 197.892 83.954C198.567 84.143 199.183 84.395 199.741 84.71C200.299 85.025 200.749 85.439 201.091 85.952C201.442 86.456 201.618 87.0815 201.618 87.8285C201.618 88.6205 201.438 89.2955 201.078 89.8535C200.718 90.4115 200.227 90.875 199.606 91.244C198.994 91.604 198.301 91.8695 197.527 92.0405C196.753 92.2115 195.952 92.297 195.124 92.297ZM211.229 92V77.663H214.739V92H211.229ZM212.998 75.017C212.422 75.017 211.918 74.864 211.486 74.558C211.063 74.243 210.851 73.8065 210.851 73.2485C210.851 72.6995 211.063 72.272 211.486 71.966C211.918 71.66 212.422 71.507 212.998 71.507C213.565 71.507 214.06 71.66 214.483 71.966C214.906 72.272 215.117 72.6995 215.117 73.2485C215.117 73.8065 214.906 74.243 214.483 74.558C214.06 74.864 213.565 75.017 212.998 75.017ZM224.049 92.297C223.194 92.297 222.38 92.2025 221.606 92.0135C220.841 91.8245 220.157 91.541 219.554 91.163C218.96 90.785 218.487 90.317 218.136 89.759C217.794 89.192 217.623 88.5395 217.623 87.8015C217.623 87.7475 217.623 87.6935 217.623 87.6395C217.623 87.5855 217.623 87.536 217.623 87.491H221.16C221.16 87.536 221.16 87.5765 221.16 87.6125C221.16 87.6395 221.16 87.68 221.16 87.734C221.16 88.319 221.426 88.76 221.957 89.057C222.497 89.345 223.23 89.489 224.157 89.489C224.661 89.489 225.134 89.435 225.575 89.327C226.025 89.219 226.385 89.0525 226.655 88.8275C226.934 88.6025 227.073 88.3145 227.073 87.9635C227.073 87.3965 226.781 86.9915 226.196 86.7485C225.62 86.5055 224.711 86.285 223.469 86.087C222.785 85.97 222.11 85.8125 221.444 85.6145C220.778 85.4165 220.17 85.151 219.621 84.818C219.081 84.485 218.645 84.071 218.312 83.576C217.988 83.081 217.826 82.478 217.826 81.767C217.826 80.822 218.105 80.03 218.663 79.391C219.23 78.743 219.986 78.2525 220.931 77.9195C221.885 77.5865 222.933 77.42 224.076 77.42C225.174 77.42 226.196 77.6 227.141 77.96C228.086 78.32 228.846 78.8375 229.422 79.5125C230.007 80.1875 230.3 81.002 230.3 81.956C230.3 81.992 230.3 82.0325 230.3 82.0775C230.3 82.1135 230.3 82.145 230.3 82.172H226.79C226.79 82.145 226.79 82.118 226.79 82.091C226.79 82.064 226.79 82.0325 226.79 81.9965C226.79 81.5825 226.659 81.245 226.398 80.984C226.137 80.723 225.8 80.5295 225.386 80.4035C224.972 80.2775 224.535 80.2145 224.076 80.2145C223.671 80.2145 223.253 80.2595 222.821 80.3495C222.389 80.4305 222.029 80.579 221.741 80.795C221.453 81.002 221.309 81.2945 221.309 81.6725C221.309 82.0325 221.457 82.325 221.754 82.55C222.051 82.775 222.465 82.964 222.996 83.117C223.527 83.261 224.139 83.3915 224.832 83.5085C225.489 83.6165 226.151 83.765 226.817 83.954C227.492 84.143 228.108 84.395 228.666 84.71C229.224 85.025 229.674 85.439 230.016 85.952C230.367 86.456 230.543 87.0815 230.543 87.8285C230.543 88.6205 230.363 89.2955 230.003 89.8535C229.643 90.4115 229.152 90.875 228.531 91.244C227.919 91.604 227.226 91.8695 226.452 92.0405C225.678 92.2115 224.877 92.297 224.049 92.297Z" fill="#2D2D2D"/>
<rect width="604" height="209" transform="translate(628)" fill="white"/>
<path d="M670 64V64C705.346 64 734 92.6538 734 128V128H670V64Z" fill="#FF6250"/>
<path d="M703.909 101.027L710.661 101.027L710.661 94.2751L703.909 94.2752L703.909 101.027ZM737.376 67.56L730.624 67.56L730.624 74.3114L737.376 74.3114L737.376 67.56ZM707.869 98.2356L734.585 71.5204L733.415 70.351L706.7 97.0662L707.869 98.2356Z" fill="#2D2D2D"/>
<path d="M790.499 74.9225H784.195L785.504 73.154V92H781.94V73.154L783.317 74.9225H776.959V72.0875H790.499V74.9225ZM803.385 92V86.8295C803.385 86.6135 803.385 86.3435 803.385 86.0195C803.385 85.6955 803.385 85.367 803.385 85.034C803.385 84.701 803.385 84.4265 803.385 84.2105C803.385 83.0225 803.151 82.1135 802.683 81.4835C802.224 80.8445 801.437 80.525 800.321 80.525C799.574 80.525 798.935 80.6735 798.404 80.9705C797.882 81.2585 797.481 81.6635 797.202 82.1855C796.923 82.7075 796.784 83.3105 796.784 83.9945L795.488 83.306C795.488 82.163 795.744 81.1505 796.257 80.2685C796.779 79.3775 797.499 78.68 798.417 78.176C799.335 77.672 800.388 77.42 801.576 77.42C803.313 77.42 804.641 77.9375 805.559 78.9725C806.477 79.9985 806.936 81.4295 806.936 83.2655C806.936 83.7335 806.936 84.2915 806.936 84.9395C806.936 85.5785 806.936 86.2985 806.936 87.0995V92H803.385ZM793.233 92V70.8995H796.784V92H793.233ZM811.695 85.979V83.4545H821.725L821.32 84.1295C821.32 84.0755 821.32 84.017 821.32 83.954C821.32 83.882 821.32 83.8235 821.32 83.7785C821.32 83.1575 821.181 82.577 820.902 82.037C820.623 81.488 820.2 81.047 819.633 80.714C819.066 80.372 818.346 80.201 817.473 80.201C816.609 80.201 815.857 80.3855 815.218 80.7545C814.588 81.1145 814.098 81.6365 813.747 82.3205C813.405 83.0045 813.234 83.8235 813.234 84.7775C813.234 85.7585 813.4 86.6045 813.733 87.3155C814.066 88.0175 814.552 88.5575 815.191 88.9355C815.839 89.3045 816.627 89.489 817.554 89.489C818.184 89.489 818.728 89.4305 819.187 89.3135C819.646 89.1965 820.02 89.039 820.308 88.841C820.605 88.634 820.825 88.4135 820.969 88.1795C821.122 87.9455 821.212 87.7115 821.239 87.4775H824.776C824.722 88.0805 824.52 88.67 824.169 89.246C823.827 89.813 823.345 90.3305 822.724 90.7985C822.103 91.2575 821.347 91.6265 820.456 91.9055C819.574 92.1755 818.566 92.3105 817.432 92.3105C815.893 92.3105 814.548 91.9955 813.396 91.3655C812.244 90.7355 811.344 89.858 810.696 88.733C810.057 87.608 809.737 86.321 809.737 84.872C809.737 83.387 810.061 82.0865 810.709 80.9705C811.366 79.8545 812.275 78.986 813.436 78.365C814.597 77.735 815.929 77.42 817.432 77.42C818.98 77.42 820.317 77.735 821.442 78.365C822.576 78.995 823.449 79.8725 824.061 80.9975C824.673 82.1135 824.979 83.414 824.979 84.899C824.979 85.088 824.974 85.2905 824.965 85.5065C824.956 85.7225 824.943 85.88 824.925 85.979H811.695ZM849.52 72.0875V92H845.956V82.28L847.562 83.495H836.573L838.18 82.307V92H834.616V72.0875H838.18V81.902L836.573 80.66H847.562L845.956 81.8885V72.0875H849.52ZM860.081 92.2835C858.569 92.2835 857.237 91.9685 856.085 91.3385C854.933 90.6995 854.028 89.8175 853.371 88.6925C852.723 87.5675 852.399 86.2805 852.399 84.8315C852.399 83.3735 852.723 82.091 853.371 80.984C854.028 79.868 854.933 78.995 856.085 78.365C857.237 77.735 858.569 77.42 860.081 77.42C861.593 77.42 862.925 77.735 864.077 78.365C865.229 78.995 866.129 79.868 866.777 80.984C867.434 82.091 867.762 83.3735 867.762 84.8315C867.762 86.2805 867.434 87.5675 866.777 88.6925C866.129 89.8175 865.229 90.6995 864.077 91.3385C862.925 91.9685 861.593 92.2835 860.081 92.2835ZM860.081 89.381C860.9 89.381 861.615 89.192 862.227 88.814C862.839 88.436 863.316 87.9095 863.658 87.2345C864 86.5505 864.171 85.7495 864.171 84.8315C864.171 83.9135 864 83.1215 863.658 82.4555C863.316 81.7805 862.839 81.2585 862.227 80.8895C861.615 80.5205 860.9 80.336 860.081 80.336C859.271 80.336 858.555 80.5205 857.934 80.8895C857.322 81.2585 856.845 81.7805 856.503 82.4555C856.161 83.1215 855.99 83.9135 855.99 84.8315C855.99 85.7495 856.161 86.5505 856.503 87.2345C856.845 87.9095 857.322 88.436 857.934 88.814C858.555 89.192 859.271 89.381 860.081 89.381ZM879.61 92V86.1815C879.61 85.6505 879.61 85.187 879.61 84.791C879.61 84.386 879.61 84.0485 879.61 83.7785C879.61 83.4275 879.587 83.063 879.542 82.685C879.497 82.298 879.398 81.9425 879.245 81.6185C879.092 81.2945 878.854 81.0335 878.53 80.8355C878.215 80.6285 877.778 80.525 877.22 80.525C876.68 80.525 876.221 80.6375 875.843 80.8625C875.474 81.0785 875.168 81.371 874.925 81.74C874.691 82.1 874.52 82.514 874.412 82.982C874.304 83.441 874.25 83.9135 874.25 84.3995L873.062 83.603C873.062 82.424 873.283 81.371 873.724 80.444C874.165 79.517 874.79 78.7835 875.6 78.2435C876.419 77.6945 877.387 77.42 878.503 77.42C879.655 77.42 880.568 77.663 881.243 78.149C881.918 78.626 882.4 79.274 882.688 80.093C882.985 80.912 883.133 81.83 883.133 82.847C883.133 83.225 883.133 83.729 883.133 84.359C883.133 84.98 883.133 85.7135 883.133 86.5595V92H879.61ZM870.7 92V77.663H874.25V92H870.7ZM888.466 92V86.195C888.466 85.628 888.466 85.1465 888.466 84.7505C888.466 84.3545 888.466 84.0215 888.466 83.7515C888.466 83.3735 888.443 82.9955 888.398 82.6175C888.353 82.2305 888.254 81.884 888.101 81.578C887.948 81.263 887.71 81.011 887.386 80.822C887.062 80.624 886.621 80.525 886.063 80.525C885.514 80.525 885.05 80.633 884.672 80.849C884.303 81.065 884.006 81.353 883.781 81.713C883.556 82.073 883.39 82.478 883.282 82.928C883.183 83.378 883.133 83.828 883.133 84.278L881.945 83.495C881.945 82.352 882.161 81.3215 882.593 80.4035C883.025 79.4855 883.646 78.761 884.456 78.23C885.266 77.69 886.229 77.42 887.345 77.42C888.47 77.42 889.375 77.6495 890.059 78.1085C890.743 78.5675 891.238 79.1975 891.544 79.9985C891.859 80.7905 892.016 81.695 892.016 82.712C892.016 83.108 892.016 83.612 892.016 84.224C892.016 84.836 892.016 85.5605 892.016 86.3975V92H888.466ZM896.755 85.979V83.4545H906.786L906.381 84.1295C906.381 84.0755 906.381 84.017 906.381 83.954C906.381 83.882 906.381 83.8235 906.381 83.7785C906.381 83.1575 906.241 82.577 905.962 82.037C905.683 81.488 905.26 81.047 904.693 80.714C904.126 80.372 903.406 80.201 902.533 80.201C901.669 80.201 900.918 80.3855 900.279 80.7545C899.649 81.1145 899.158 81.6365 898.807 82.3205C898.465 83.0045 898.294 83.8235 898.294 84.7775C898.294 85.7585 898.461 86.6045 898.794 87.3155C899.127 88.0175 899.613 88.5575 900.252 88.9355C900.9 89.3045 901.687 89.489 902.614 89.489C903.244 89.489 903.789 89.4305 904.248 89.3135C904.707 89.1965 905.08 89.039 905.368 88.841C905.665 88.634 905.886 88.4135 906.03 88.1795C906.183 87.9455 906.273 87.7115 906.3 87.4775H909.837C909.783 88.0805 909.58 88.67 909.229 89.246C908.887 89.813 908.406 90.3305 907.785 90.7985C907.164 91.2575 906.408 91.6265 905.517 91.9055C904.635 92.1755 903.627 92.3105 902.493 92.3105C900.954 92.3105 899.608 91.9955 898.456 91.3655C897.304 90.7355 896.404 89.858 895.756 88.733C895.117 87.608 894.798 86.321 894.798 84.872C894.798 83.387 895.122 82.0865 895.77 80.9705C896.427 79.8545 897.336 78.986 898.497 78.365C899.658 77.735 900.99 77.42 902.493 77.42C904.041 77.42 905.377 77.735 906.502 78.365C907.636 78.995 908.509 79.8725 909.121 80.9975C909.733 82.1135 910.039 83.414 910.039 84.899C910.039 85.088 910.035 85.2905 910.026 85.5065C910.017 85.7225 910.003 85.88 909.985 85.979H896.755Z" fill="#2D2D2D"/>
</svg>
